<svg width="276" height="56" viewBox="0 0 276 56" fill="none" xmlns="http://www.w3.org/2000/svg">
<path d="M0.432 55V48.844L2.94 48.616C4.40933 48.464 5.144 47.7547 5.144 46.488V11.148L0.812 10.92V4.46H21.56C27.4373 4.46 31.9467 5.54933 35.088 7.728C38.2293 9.90666 39.8 13.4787 39.8 18.444C39.8 21.8893 38.888 24.7267 37.064 26.956C35.2907 29.1853 33.1627 30.8067 30.68 31.82C32.504 32.4787 33.948 34.024 35.012 36.456L40.484 48.388L44.816 48.54V55H26.044V48.844L28.248 48.616C29.4133 48.464 29.996 48.008 29.996 47.248C29.996 46.944 29.8947 46.5893 29.692 46.184L26.12 38.584C25.5627 37.3173 24.9293 36.4307 24.22 35.924C23.5613 35.3667 22.5987 35.088 21.332 35.088H14.416V48.312L19.356 48.54V55H0.432ZM14.416 27.868H21.028C27.26 27.868 30.376 25.0813 30.376 19.508C30.376 16.316 29.54 14.2387 27.868 13.276C26.2467 12.3133 23.612 11.832 19.964 11.832H14.416V27.868ZM67.1582 15.632C70.9582 15.632 73.9729 16.5693 76.2022 18.444C78.4316 20.268 79.5462 22.852 79.5462 26.196C79.5462 28.4253 79.0649 30.4013 78.1022 32.124C77.1396 33.796 75.9489 35.1133 74.5302 36.076C73.1116 37.0387 71.3889 37.824 69.3622 38.432C65.9676 39.4453 62.1422 39.952 57.8862 39.952C58.0382 42.6373 58.8742 44.816 60.3942 46.488C61.9142 48.1093 64.2449 48.92 67.3862 48.92C70.5276 48.92 73.6689 47.8053 76.8102 45.576L79.6982 51.732C78.6849 52.644 76.9622 53.5813 74.5302 54.544C72.1489 55.5067 69.4129 55.988 66.3222 55.988C60.1409 55.988 55.6062 54.2907 52.7182 50.896C49.8302 47.4507 48.3862 42.7387 48.3862 36.76C48.3862 30.7813 50.0329 25.7653 53.3262 21.712C56.6196 17.6587 61.2302 15.632 67.1582 15.632ZM63.6622 33.036C65.5369 32.6813 67.2596 31.9467 68.8302 30.832C70.4009 29.6667 71.1862 28.2987 71.1862 26.728C71.1862 23.6373 69.6662 22.092 66.6262 22.092C63.7889 22.092 61.6102 23.232 60.0902 25.512C58.5702 27.7413 57.7342 30.4267 57.5822 33.568C59.8116 33.5173 61.8382 33.34 63.6622 33.036ZM107.999 16.772H124.035V22.7L121.679 22.852C120.665 22.9533 119.981 23.5613 119.627 24.676L109.823 55H98.1947L87.5547 24.752C87.3014 24.0427 87.0227 23.5613 86.7187 23.308C86.4654 23.0547 86.0094 22.9027 85.3507 22.852L83.1467 22.7V16.772H101.007V22.852L96.3707 23.08L104.199 48.084H104.351L111.951 23.08L107.999 22.852V16.772ZM141.03 16.772V48.692L145.362 48.92V55H127.274V49.224L129.782 48.996C131.251 48.844 131.986 48.0333 131.986 46.564V25.436C131.986 24.5747 131.834 23.992 131.53 23.688C131.276 23.384 130.795 23.232 130.086 23.232L127.426 23.08V16.772H141.03ZM131.454 10.236C130.39 9.172 129.858 7.82933 129.858 6.208C129.858 4.58666 130.39 3.244 131.454 2.18C132.518 1.06533 133.911 0.507999 135.634 0.507999C137.356 0.507999 138.75 1.06533 139.814 2.18C140.928 3.244 141.486 4.58666 141.486 6.208C141.486 7.82933 140.928 9.172 139.814 10.236C138.75 11.2493 137.356 11.756 135.634 11.756C133.911 11.756 132.518 11.2493 131.454 10.236ZM168.838 15.632C172.638 15.632 175.653 16.5693 177.882 18.444C180.111 20.268 181.226 22.852 181.226 26.196C181.226 28.4253 180.745 30.4013 179.782 32.124C178.819 33.796 177.629 35.1133 176.21 36.076C174.791 37.0387 173.069 37.824 171.042 38.432C167.647 39.4453 163.822 39.952 159.566 39.952C159.718 42.6373 160.554 44.816 162.074 46.488C163.594 48.1093 165.925 48.92 169.066 48.92C172.207 48.92 175.349 47.8053 178.49 45.576L181.378 51.732C180.365 52.644 178.642 53.5813 176.21 54.544C173.829 55.5067 171.093 55.988 168.002 55.988C161.821 55.988 157.286 54.2907 154.398 50.896C151.51 47.4507 150.066 42.7387 150.066 36.76C150.066 30.7813 151.713 25.7653 155.006 21.712C158.299 17.6587 162.91 15.632 168.838 15.632ZM165.342 33.036C167.217 32.6813 168.939 31.9467 170.51 30.832C172.081 29.6667 172.866 28.2987 172.866 26.728C172.866 23.6373 171.346 22.092 168.306 22.092C165.469 22.092 163.29 23.232 161.77 25.512C160.25 27.7413 159.414 30.4267 159.262 33.568C161.491 33.5173 163.518 33.34 165.342 33.036ZM210.988 18.292H218.36L226.264 46.564H226.416L231.584 23.08L227.708 22.852V16.772H242.984V22.624L240.476 22.776C239.463 22.8773 238.779 23.4853 238.424 24.6L231.204 55H220.26L214.028 32.352H213.8L207.34 55H196.168L188.492 24.676C188.239 23.9667 187.96 23.4853 187.656 23.232C187.403 22.9787 186.947 22.8267 186.288 22.776L184.084 22.624V16.772H201.488V22.852L197.232 23.08L202.476 46.412H202.628L210.988 18.292ZM266.158 22.548C264.942 22.092 263.473 21.864 261.75 21.864C260.028 21.864 258.634 22.2693 257.57 23.08C256.557 23.84 256.05 24.8027 256.05 25.968C256.05 27.0827 256.228 27.9693 256.582 28.628C256.988 29.236 257.596 29.768 258.406 30.224C259.673 30.8827 261.193 31.4653 262.966 31.972C264.74 32.428 266.057 32.808 266.918 33.112C267.78 33.3653 268.844 33.8213 270.11 34.48C271.428 35.1387 272.416 35.848 273.074 36.608C274.848 38.4827 275.734 40.8893 275.734 43.828C275.734 47.628 274.341 50.6173 271.554 52.796C268.818 54.924 265.322 55.988 261.066 55.988C254.885 55.988 250.224 55.2027 247.082 53.632V43.068L253.922 42.536V46.184C253.922 48.4133 256.05 49.528 260.306 49.528C264.562 49.528 266.69 47.9827 266.69 44.892C266.69 43.7773 266.31 42.8653 265.55 42.156C264.841 41.4467 264.132 40.9653 263.422 40.712C262.713 40.4587 261.852 40.2053 260.838 39.952C259.876 39.6987 258.913 39.4453 257.95 39.192C257.038 38.9387 256.025 38.6093 254.91 38.204C253.846 37.748 252.656 37.1147 251.338 36.304C248.754 34.632 247.462 31.8453 247.462 27.944C247.462 23.992 248.856 20.952 251.642 18.824C254.429 16.696 257.925 15.632 262.13 15.632C266.386 15.632 270.592 16.6453 274.746 18.672V27.792L267.906 28.324V25.132C267.906 23.8653 267.324 23.004 266.158 22.548Z" fill="#FFFDE9"/>
</svg>
